<mxfile host="app.diagrams.net" agent="Mozilla/5.0 (X11; Linux x86_64) AppleWebKit/537.36 (KHTML, like Gecko) Chrome/138.0.0.0 Safari/537.36" version="28.0.6">
  <diagram name="Página-1" id="rr-gWbCVapyccKXYTNxf">
    <mxGraphModel dx="1599" dy="793" grid="1" gridSize="10" guides="1" tooltips="1" connect="1" arrows="1" fold="1" page="1" pageScale="1" pageWidth="827" pageHeight="1169" math="0" shadow="0">
      <root>
        <mxCell id="0" />
        <mxCell id="1" parent="0" />
        <mxCell id="peaNorzhWxKzyu96Emqx-24" value="" style="edgeStyle=orthogonalEdgeStyle;rounded=0;orthogonalLoop=1;jettySize=auto;html=1;" edge="1" parent="1" source="peaNorzhWxKzyu96Emqx-1" target="peaNorzhWxKzyu96Emqx-23">
          <mxGeometry relative="1" as="geometry" />
        </mxCell>
        <mxCell id="peaNorzhWxKzyu96Emqx-26" value="" style="edgeStyle=orthogonalEdgeStyle;rounded=0;orthogonalLoop=1;jettySize=auto;html=1;" edge="1" parent="1" source="peaNorzhWxKzyu96Emqx-1" target="peaNorzhWxKzyu96Emqx-25">
          <mxGeometry relative="1" as="geometry" />
        </mxCell>
        <mxCell id="peaNorzhWxKzyu96Emqx-27" value="" style="edgeStyle=orthogonalEdgeStyle;rounded=0;orthogonalLoop=1;jettySize=auto;html=1;" edge="1" parent="1" source="peaNorzhWxKzyu96Emqx-1" target="peaNorzhWxKzyu96Emqx-25">
          <mxGeometry relative="1" as="geometry" />
        </mxCell>
        <mxCell id="peaNorzhWxKzyu96Emqx-29" value="" style="edgeStyle=orthogonalEdgeStyle;rounded=0;orthogonalLoop=1;jettySize=auto;html=1;" edge="1" parent="1" source="peaNorzhWxKzyu96Emqx-1" target="peaNorzhWxKzyu96Emqx-28">
          <mxGeometry relative="1" as="geometry" />
        </mxCell>
        <mxCell id="peaNorzhWxKzyu96Emqx-31" value="" style="edgeStyle=orthogonalEdgeStyle;rounded=0;orthogonalLoop=1;jettySize=auto;html=1;" edge="1" parent="1" source="peaNorzhWxKzyu96Emqx-1" target="peaNorzhWxKzyu96Emqx-30">
          <mxGeometry relative="1" as="geometry" />
        </mxCell>
        <mxCell id="peaNorzhWxKzyu96Emqx-32" value="" style="edgeStyle=orthogonalEdgeStyle;rounded=0;orthogonalLoop=1;jettySize=auto;html=1;" edge="1" parent="1" source="peaNorzhWxKzyu96Emqx-1" target="peaNorzhWxKzyu96Emqx-23">
          <mxGeometry relative="1" as="geometry" />
        </mxCell>
        <mxCell id="peaNorzhWxKzyu96Emqx-34" value="" style="edgeStyle=orthogonalEdgeStyle;rounded=0;orthogonalLoop=1;jettySize=auto;html=1;" edge="1" parent="1" source="peaNorzhWxKzyu96Emqx-1" target="peaNorzhWxKzyu96Emqx-33">
          <mxGeometry relative="1" as="geometry" />
        </mxCell>
        <mxCell id="peaNorzhWxKzyu96Emqx-1" value="cliente" style="rounded=0;whiteSpace=wrap;html=1;" vertex="1" parent="1">
          <mxGeometry x="640" y="250" width="120" height="60" as="geometry" />
        </mxCell>
        <mxCell id="peaNorzhWxKzyu96Emqx-14" value="" style="edgeStyle=orthogonalEdgeStyle;rounded=0;orthogonalLoop=1;jettySize=auto;html=1;" edge="1" parent="1" source="peaNorzhWxKzyu96Emqx-2" target="peaNorzhWxKzyu96Emqx-13">
          <mxGeometry relative="1" as="geometry" />
        </mxCell>
        <mxCell id="peaNorzhWxKzyu96Emqx-15" value="" style="edgeStyle=orthogonalEdgeStyle;rounded=0;orthogonalLoop=1;jettySize=auto;html=1;" edge="1" parent="1" source="peaNorzhWxKzyu96Emqx-2" target="peaNorzhWxKzyu96Emqx-13">
          <mxGeometry relative="1" as="geometry" />
        </mxCell>
        <mxCell id="peaNorzhWxKzyu96Emqx-17" value="" style="edgeStyle=orthogonalEdgeStyle;rounded=0;orthogonalLoop=1;jettySize=auto;html=1;" edge="1" parent="1" source="peaNorzhWxKzyu96Emqx-2" target="peaNorzhWxKzyu96Emqx-16">
          <mxGeometry relative="1" as="geometry" />
        </mxCell>
        <mxCell id="peaNorzhWxKzyu96Emqx-19" value="" style="edgeStyle=orthogonalEdgeStyle;rounded=0;orthogonalLoop=1;jettySize=auto;html=1;" edge="1" parent="1" source="peaNorzhWxKzyu96Emqx-2" target="peaNorzhWxKzyu96Emqx-18">
          <mxGeometry relative="1" as="geometry" />
        </mxCell>
        <mxCell id="peaNorzhWxKzyu96Emqx-2" value="pelicula" style="rounded=0;whiteSpace=wrap;html=1;" vertex="1" parent="1">
          <mxGeometry x="350" y="250" width="120" height="60" as="geometry" />
        </mxCell>
        <mxCell id="peaNorzhWxKzyu96Emqx-5" value="" style="edgeStyle=orthogonalEdgeStyle;rounded=0;orthogonalLoop=1;jettySize=auto;html=1;" edge="1" parent="1" source="peaNorzhWxKzyu96Emqx-3" target="peaNorzhWxKzyu96Emqx-4">
          <mxGeometry relative="1" as="geometry" />
        </mxCell>
        <mxCell id="peaNorzhWxKzyu96Emqx-7" value="" style="edgeStyle=orthogonalEdgeStyle;rounded=0;orthogonalLoop=1;jettySize=auto;html=1;" edge="1" parent="1" source="peaNorzhWxKzyu96Emqx-3" target="peaNorzhWxKzyu96Emqx-6">
          <mxGeometry relative="1" as="geometry" />
        </mxCell>
        <mxCell id="peaNorzhWxKzyu96Emqx-9" value="" style="edgeStyle=orthogonalEdgeStyle;rounded=0;orthogonalLoop=1;jettySize=auto;html=1;" edge="1" parent="1" source="peaNorzhWxKzyu96Emqx-3" target="peaNorzhWxKzyu96Emqx-8">
          <mxGeometry relative="1" as="geometry" />
        </mxCell>
        <mxCell id="peaNorzhWxKzyu96Emqx-11" value="" style="edgeStyle=orthogonalEdgeStyle;rounded=0;orthogonalLoop=1;jettySize=auto;html=1;" edge="1" parent="1" source="peaNorzhWxKzyu96Emqx-3" target="peaNorzhWxKzyu96Emqx-10">
          <mxGeometry relative="1" as="geometry" />
        </mxCell>
        <mxCell id="peaNorzhWxKzyu96Emqx-22" value="" style="edgeStyle=orthogonalEdgeStyle;rounded=0;orthogonalLoop=1;jettySize=auto;html=1;" edge="1" parent="1" target="peaNorzhWxKzyu96Emqx-21">
          <mxGeometry relative="1" as="geometry">
            <mxPoint x="210" y="300" as="sourcePoint" />
          </mxGeometry>
        </mxCell>
        <mxCell id="peaNorzhWxKzyu96Emqx-3" value="función" style="rounded=0;whiteSpace=wrap;html=1;" vertex="1" parent="1">
          <mxGeometry x="130" y="250" width="120" height="60" as="geometry" />
        </mxCell>
        <mxCell id="peaNorzhWxKzyu96Emqx-4" value="sala" style="ellipse;whiteSpace=wrap;html=1;rounded=0;" vertex="1" parent="1">
          <mxGeometry x="40" y="340" width="80" height="80" as="geometry" />
        </mxCell>
        <mxCell id="peaNorzhWxKzyu96Emqx-6" value="hora&lt;div&gt;&lt;br&gt;&lt;/div&gt;" style="ellipse;whiteSpace=wrap;html=1;rounded=0;" vertex="1" parent="1">
          <mxGeometry x="40" y="130" width="80" height="80" as="geometry" />
        </mxCell>
        <mxCell id="peaNorzhWxKzyu96Emqx-8" value="sede" style="ellipse;whiteSpace=wrap;html=1;rounded=0;" vertex="1" parent="1">
          <mxGeometry x="150" y="100" width="80" height="80" as="geometry" />
        </mxCell>
        <mxCell id="peaNorzhWxKzyu96Emqx-12" style="edgeStyle=orthogonalEdgeStyle;rounded=0;orthogonalLoop=1;jettySize=auto;html=1;entryX=0.5;entryY=1;entryDx=0;entryDy=0;" edge="1" parent="1" source="peaNorzhWxKzyu96Emqx-10" target="peaNorzhWxKzyu96Emqx-2">
          <mxGeometry relative="1" as="geometry" />
        </mxCell>
        <mxCell id="peaNorzhWxKzyu96Emqx-10" value="pelicula" style="ellipse;whiteSpace=wrap;html=1;rounded=0;" vertex="1" parent="1">
          <mxGeometry x="150" y="380" width="80" height="80" as="geometry" />
        </mxCell>
        <mxCell id="peaNorzhWxKzyu96Emqx-13" value="clasificación&lt;div&gt;&lt;br&gt;&lt;/div&gt;" style="ellipse;whiteSpace=wrap;html=1;rounded=0;" vertex="1" parent="1">
          <mxGeometry x="290" y="110" width="80" height="80" as="geometry" />
        </mxCell>
        <mxCell id="peaNorzhWxKzyu96Emqx-16" value="nombre" style="ellipse;whiteSpace=wrap;html=1;rounded=0;" vertex="1" parent="1">
          <mxGeometry x="410" y="100" width="80" height="80" as="geometry" />
        </mxCell>
        <mxCell id="peaNorzhWxKzyu96Emqx-18" value="género" style="ellipse;whiteSpace=wrap;html=1;rounded=0;" vertex="1" parent="1">
          <mxGeometry x="480" y="370" width="80" height="80" as="geometry" />
        </mxCell>
        <mxCell id="peaNorzhWxKzyu96Emqx-21" value="cupos" style="ellipse;whiteSpace=wrap;html=1;rounded=0;" vertex="1" parent="1">
          <mxGeometry x="220" y="560" width="80" height="80" as="geometry" />
        </mxCell>
        <mxCell id="peaNorzhWxKzyu96Emqx-23" value="nombre" style="ellipse;whiteSpace=wrap;html=1;rounded=0;" vertex="1" parent="1">
          <mxGeometry x="650" y="100" width="80" height="80" as="geometry" />
        </mxCell>
        <mxCell id="peaNorzhWxKzyu96Emqx-25" value="cédula" style="ellipse;whiteSpace=wrap;html=1;rounded=0;" vertex="1" parent="1">
          <mxGeometry x="660" y="570" width="80" height="80" as="geometry" />
        </mxCell>
        <mxCell id="peaNorzhWxKzyu96Emqx-28" value="edad" style="ellipse;whiteSpace=wrap;html=1;rounded=0;" vertex="1" parent="1">
          <mxGeometry x="590" y="620" width="80" height="80" as="geometry" />
        </mxCell>
        <mxCell id="peaNorzhWxKzyu96Emqx-30" value="medio de pago" style="ellipse;whiteSpace=wrap;html=1;rounded=0;" vertex="1" parent="1">
          <mxGeometry x="710" y="370" width="80" height="80" as="geometry" />
        </mxCell>
        <mxCell id="peaNorzhWxKzyu96Emqx-33" value="ubicación" style="ellipse;whiteSpace=wrap;html=1;rounded=0;" vertex="1" parent="1">
          <mxGeometry x="540" y="150" width="80" height="80" as="geometry" />
        </mxCell>
      </root>
    </mxGraphModel>
  </diagram>
</mxfile>
